<?xml version="1.0" encoding="UTF-8" standalone="no"?>
<!-- Created with Inkscape (http://www.inkscape.org/) -->

<svg
   xmlns:dc="http://purl.org/dc/elements/1.1/"
   xmlns:cc="http://creativecommons.org/ns#"
   xmlns:rdf="http://www.w3.org/1999/02/22-rdf-syntax-ns#"
   xmlns:svg="http://www.w3.org/2000/svg"
   xmlns="http://www.w3.org/2000/svg"
   xmlns:sodipodi="http://sodipodi.sourceforge.net/DTD/sodipodi-0.dtd"
   xmlns:inkscape="http://www.inkscape.org/namespaces/inkscape"
   width="210mm"
   height="297mm"
   viewBox="0 0 744.09448819 1052.3622047"
   id="svg2"
   version="1.1"
   inkscape:version="0.91 r13725"
   sodipodi:docname="Tutorial05StartingImages.svg"
   inkscape:export-filename="C:\Users\Roy Torley\Desktop\Inkscape Tutorial\Tutorial05\images\Tutorial05StartingImages.gif"
   inkscape:export-xdpi="90"
   inkscape:export-ydpi="90">
  <defs
     id="defs4" />
  <sodipodi:namedview
     id="base"
     pagecolor="#ffffff"
     bordercolor="#666666"
     borderopacity="1.0"
     inkscape:pageopacity="0.0"
     inkscape:pageshadow="2"
     inkscape:zoom="0.23525276"
     inkscape:cx="985.4067"
     inkscape:cy="13.563232"
     inkscape:document-units="px"
     inkscape:current-layer="layer1"
     showgrid="false" />
  <metadata
     id="metadata7">
    <rdf:RDF>
      <cc:Work
         rdf:about="">
        <dc:format>image/svg+xml</dc:format>
        <dc:type
           rdf:resource="http://purl.org/dc/dcmitype/StillImage" />
        <dc:title></dc:title>
      </cc:Work>
    </rdf:RDF>
  </metadata>
  <g
     inkscape:label="Layer 1"
     inkscape:groupmode="layer"
     id="layer1">
    <rect
       style="opacity:1;fill:#ece6e4;fill-opacity:1;fill-rule:nonzero;stroke:#3c9185;stroke-width:5;stroke-linecap:butt;stroke-linejoin:miter;stroke-miterlimit:4;stroke-dasharray:none;stroke-dashoffset:0;stroke-opacity:1"
       id="rect4147"
       width="233.30109"
       height="198.39235"
       x="127.1485"
       y="97.092949" />
    <path
       style="opacity:1;fill:#8db284;fill-opacity:1;fill-rule:evenodd;stroke:#90b484;stroke-width:1px;stroke-linecap:butt;stroke-linejoin:miter;stroke-opacity:1"
       d="m 167.87418,133.66553 c 12.18135,-13.70402 29.43827,-6.59823 35.52894,-6.09067 41.61962,-33.498721 58.36897,13.19647 81.20901,5.07556 25.88537,-19.28714 78.16367,15.2267 40.60451,66.99744 -1.01511,19.54091 11.31084,47.00231 -4.75834,58.36897 -28.2707,19.9975 -54.37198,-18.52581 -73.91289,8.62846 -11.42002,14.21158 -21.94385,12.33838 -39.72989,6.64685 -25.37781,-8.1209 -11.9744,-39.91156 -35.38845,-40.14557 -22.9756,-0.83606 -24.71613,-35.4858 -6.09067,-55.83119 7.04354,-7.69397 -3.5529,-37.05162 2.53778,-43.64985 z"
       id="path4193"
       inkscape:connector-curvature="0"
       sodipodi:nodetypes="ccccscscsc" />
    <path
       style="opacity:1;fill:#045264;fill-opacity:1;fill-rule:evenodd;stroke:#045264;stroke-width:1px;stroke-linecap:butt;stroke-linejoin:miter;stroke-opacity:1"
       d="m 193.75954,173.25491 c -13.70402,6.59823 -9.13601,15.22669 -7.61334,21.82492 -22.84004,32.48361 13.65359,22.66588 19.28714,23.34759 21.14052,2.55819 19.53133,19.55495 32.91857,18.80694 21.12023,-1.1801 50.87362,-8.65363 66.05491,-16.26916 14.31992,-10.40383 1.01511,-54.30852 -9.64357,-58.87653 -16.19429,-13.53864 -79.17879,2.53778 -101.00371,11.16624 z"
       id="path4233"
       inkscape:connector-curvature="0"
       sodipodi:nodetypes="ccssccc" />
    <path
       sodipodi:nodetypes="ccssccc"
       inkscape:connector-curvature="0"
       id="path4235"
       d="m 196.04211,174.32721 c -13.08976,6.30106 -10.90869,13.44978 -7.27209,20.84194 -23.99846,31.02054 13.04159,21.645 18.42264,22.29601 20.19292,2.44297 18.65585,18.6742 31.44303,17.95988 20.17353,-1.12694 48.59328,-8.26388 63.09409,-15.53639 13.67806,-9.93526 0.96963,-51.86249 -9.2113,-56.22476 -15.46842,-12.92885 -75.62971,2.42349 -96.47637,10.66332 z"
       style="opacity:1;fill:#f45a04;fill-opacity:1;fill-rule:evenodd;stroke:#045264;stroke-width:1px;stroke-linecap:butt;stroke-linejoin:miter;stroke-opacity:1" />
    <path
       style="opacity:1;fill:#b8b8ba;fill-opacity:1;fill-rule:evenodd;stroke:#045264;stroke-width:3;stroke-linecap:butt;stroke-linejoin:miter;stroke-miterlimit:4;stroke-dasharray:none;stroke-opacity:1"
       d="m 233.79851,137.87452 c 34.76945,-2.69489 40.86953,7.66889 51.32678,26.27512 9.19207,26.47078 2.8956,37.39825 1.84815,38.19631 -3.46708,2.64158 -66.72246,10.5417 -78.86311,1.96671 -14.7528,-16.15817 -10.71557,-54.48891 -3.65224,-60.43248 3.22571,-2.45551 13.34648,-3.9845 29.34042,-6.00566 z"
       id="path4237"
       inkscape:connector-curvature="0"
       sodipodi:nodetypes="ccsccc" />
    <path
       style="opacity:1;fill:#e4e4dc;fill-opacity:1;fill-rule:evenodd;stroke:#045264;stroke-width:3;stroke-linecap:butt;stroke-linejoin:miter;stroke-miterlimit:4;stroke-dasharray:none;stroke-opacity:1"
       d="m 201.94444,193.62401 c 4.51448,13.8256 17.14241,14.4891 43.94566,13.86087 27.39968,-0.64221 44.65104,-3.28005 43.52242,-17.24673 -7.61819,4.79664 -23.87485,5.9815 -43.80458,7.12442 -19.68031,1.12862 -34.63454,-2.32778 -43.6635,-3.73856 z"
       id="path4239"
       inkscape:connector-curvature="0"
       sodipodi:nodetypes="cscsc" />
    <path
       style="opacity:1;fill:#e8e4e0;fill-opacity:1;fill-rule:evenodd;stroke:#045264;stroke-width:3;stroke-linecap:butt;stroke-linejoin:miter;stroke-miterlimit:4;stroke-dasharray:none;stroke-opacity:1"
       d="m 204.83434,144.05675 c 13.59163,-5.87566 57.16925,-12.77284 68.8377,3.1117 2.55425,11.49849 -13.1159,1.17577 -13.95573,1.0078 15.95687,29.39425 -49.00312,6.12649 -54.88197,-4.1195 z"
       id="path4241"
       inkscape:connector-curvature="0"
       sodipodi:nodetypes="cccc" />
    <path
       style="opacity:1;fill:#fc8e04;fill-opacity:1;fill-rule:evenodd;stroke:#045264;stroke-width:2;stroke-linecap:butt;stroke-linejoin:miter;stroke-miterlimit:4;stroke-dasharray:none;stroke-opacity:1"
       d="m 236.35306,197.77072 c -1.58892,-22.48353 -12.93903,-28.29976 -28.94425,-30.85075 0.34664,12.73893 11.34922,25.41145 26.08132,26.45137"
       id="path4243"
       inkscape:connector-curvature="0"
       sodipodi:nodetypes="ccc" />
    <rect
       y="97.092949"
       x="375.1485"
       height="198.39235"
       width="233.30109"
       id="rect4245"
       style="opacity:1;fill:#ece6e4;fill-opacity:1;fill-rule:nonzero;stroke:#3c9185;stroke-width:5;stroke-linecap:butt;stroke-linejoin:miter;stroke-miterlimit:4;stroke-dasharray:none;stroke-dashoffset:0;stroke-opacity:1" />
    <path
       sodipodi:nodetypes="ccccscscsc"
       inkscape:connector-curvature="0"
       id="path4247"
       d="m 415.87418,133.66553 c 12.18135,-13.70402 29.43827,-6.59823 35.52894,-6.09067 41.61962,-33.498721 58.36897,13.19647 81.20901,5.07556 25.88537,-19.28714 78.16367,15.2267 40.60451,66.99744 -1.01511,19.54091 11.31084,47.00231 -4.75834,58.36897 -28.2707,19.9975 -54.37198,-18.52581 -73.91289,8.62846 -11.42002,14.21158 -21.94385,12.33838 -39.72989,6.64685 -25.37781,-8.1209 -11.9744,-39.91156 -35.38845,-40.14557 -22.9756,-0.83606 -24.71613,-35.4858 -6.09067,-55.83119 7.04354,-7.69397 -3.5529,-37.05162 2.53778,-43.64985 z"
       style="opacity:1;fill:#8db284;fill-opacity:1;fill-rule:evenodd;stroke:#90b484;stroke-width:1px;stroke-linecap:butt;stroke-linejoin:miter;stroke-opacity:1" />
    <path
       sodipodi:nodetypes="ccssccc"
       inkscape:connector-curvature="0"
       id="path4249"
       d="m 441.75954,173.25491 c -13.70402,6.59823 -9.13601,15.22669 -7.61334,21.82492 -22.84004,32.48361 13.65359,22.66588 19.28714,23.34759 21.14052,2.55819 19.53133,19.55495 32.91857,18.80694 21.12023,-1.1801 50.87362,-8.65363 66.05491,-16.26916 14.31992,-10.40383 1.01511,-54.30852 -9.64357,-58.87653 -16.19429,-13.53864 -79.17879,2.53778 -101.00371,11.16624 z"
       style="opacity:1;fill:#045264;fill-opacity:1;fill-rule:evenodd;stroke:#045264;stroke-width:1px;stroke-linecap:butt;stroke-linejoin:miter;stroke-opacity:1" />
    <path
       style="opacity:1;fill:#f45a04;fill-opacity:1;fill-rule:evenodd;stroke:#045264;stroke-width:1px;stroke-linecap:butt;stroke-linejoin:miter;stroke-opacity:1"
       d="m 444.04211,174.32721 c -13.08976,6.30106 -10.90869,13.44978 -7.27209,20.84194 -23.99846,31.02054 13.04159,21.645 18.42264,22.29601 20.19292,2.44297 18.65585,18.6742 31.44303,17.95988 20.17353,-1.12694 48.59328,-8.26388 63.09409,-15.53639 13.67806,-9.93526 0.96963,-51.86249 -9.2113,-56.22476 -15.46842,-12.92885 -75.62971,2.42349 -96.47637,10.66332 z"
       id="path4251"
       inkscape:connector-curvature="0"
       sodipodi:nodetypes="ccssccc" />
    <path
       sodipodi:nodetypes="ccsccc"
       inkscape:connector-curvature="0"
       id="path4253"
       d="m 481.79851,137.87452 c 34.76945,-2.69489 40.86953,7.66889 51.32678,26.27512 9.19207,26.47078 2.8956,37.39825 1.84815,38.19631 -3.46708,2.64158 -66.72246,10.5417 -78.86311,1.96671 -14.7528,-16.15817 -10.71557,-54.48891 -3.65224,-60.43248 3.22571,-2.45551 13.34648,-3.9845 29.34042,-6.00566 z"
       style="opacity:1;fill:#b8b8ba;fill-opacity:1;fill-rule:evenodd;stroke:#045264;stroke-width:3;stroke-linecap:butt;stroke-linejoin:miter;stroke-miterlimit:4;stroke-dasharray:none;stroke-opacity:1" />
    <path
       sodipodi:nodetypes="cscsc"
       inkscape:connector-curvature="0"
       id="path4255"
       d="m 449.94444,193.62401 c 4.51448,13.8256 17.14241,14.4891 43.94566,13.86087 27.39968,-0.64221 44.65104,-3.28005 43.52242,-17.24673 -7.61819,4.79664 -23.87485,5.9815 -43.80458,7.12442 -19.68031,1.12862 -34.63454,-2.32778 -43.6635,-3.73856 z"
       style="opacity:1;fill:#e4e4dc;fill-opacity:1;fill-rule:evenodd;stroke:#045264;stroke-width:3;stroke-linecap:butt;stroke-linejoin:miter;stroke-miterlimit:4;stroke-dasharray:none;stroke-opacity:1" />
    <path
       sodipodi:nodetypes="cccc"
       inkscape:connector-curvature="0"
       id="path4257"
       d="m 452.83434,144.05675 c 13.59163,-5.87566 57.16925,-12.77284 68.8377,3.1117 2.55425,11.49849 -13.1159,1.17577 -13.95573,1.0078 15.95687,29.39425 -49.00312,6.12649 -54.88197,-4.1195 z"
       style="opacity:1;fill:#e8e4e0;fill-opacity:1;fill-rule:evenodd;stroke:#045264;stroke-width:3;stroke-linecap:butt;stroke-linejoin:miter;stroke-miterlimit:4;stroke-dasharray:none;stroke-opacity:1" />
    <path
       sodipodi:nodetypes="ccc"
       inkscape:connector-curvature="0"
       id="path4259"
       d="m 484.35306,197.77072 c -1.58892,-22.48353 -12.93903,-28.29976 -28.94425,-30.85075 0.34664,12.73893 11.34922,25.41145 26.08132,26.45137"
       style="opacity:1;fill:#fc8e04;fill-opacity:1;fill-rule:evenodd;stroke:#045264;stroke-width:2;stroke-linecap:butt;stroke-linejoin:miter;stroke-miterlimit:4;stroke-dasharray:none;stroke-opacity:1" />
    <rect
       y="311.09296"
       x="127.1485"
       height="198.39235"
       width="233.30109"
       id="rect4261"
       style="opacity:1;fill:#ece6e4;fill-opacity:1;fill-rule:nonzero;stroke:#3c9185;stroke-width:5;stroke-linecap:butt;stroke-linejoin:miter;stroke-miterlimit:4;stroke-dasharray:none;stroke-dashoffset:0;stroke-opacity:1" />
    <path
       sodipodi:nodetypes="ccccscscsc"
       inkscape:connector-curvature="0"
       id="path4263"
       d="m 167.87418,347.66553 c 12.18135,-13.70402 29.43827,-6.59823 35.52894,-6.09067 41.61962,-33.49872 58.36897,13.19647 81.20901,5.07556 25.88537,-19.28714 78.16367,15.2267 40.60451,66.99744 -1.01511,19.54091 11.31084,47.00231 -4.75834,58.36895 -28.2707,19.9975 -54.37198,-18.52579 -73.91289,8.6285 -11.42002,14.2116 -21.94385,12.3384 -39.72989,6.6468 -25.37781,-8.1209 -11.9744,-39.91153 -35.38845,-40.14554 -22.9756,-0.83606 -24.71613,-35.4858 -6.09067,-55.83119 7.04354,-7.69397 -3.5529,-37.05162 2.53778,-43.64985 z"
       style="opacity:1;fill:#8db284;fill-opacity:1;fill-rule:evenodd;stroke:#90b484;stroke-width:1px;stroke-linecap:butt;stroke-linejoin:miter;stroke-opacity:1" />
    <path
       sodipodi:nodetypes="ccssccc"
       inkscape:connector-curvature="0"
       id="path4265"
       d="m 193.75954,387.25491 c -13.70402,6.59823 -9.13601,15.22669 -7.61334,21.82492 -22.84004,32.48361 13.65359,22.66588 19.28714,23.34759 21.14052,2.55819 19.53133,19.55495 32.91857,18.80694 21.12023,-1.1801 50.87362,-8.65363 66.05491,-16.26916 14.31992,-10.40383 1.01511,-54.30852 -9.64357,-58.87653 -16.19429,-13.53864 -79.17879,2.53778 -101.00371,11.16624 z"
       style="opacity:1;fill:#045264;fill-opacity:1;fill-rule:evenodd;stroke:#045264;stroke-width:1px;stroke-linecap:butt;stroke-linejoin:miter;stroke-opacity:1" />
    <path
       style="opacity:1;fill:#f45a04;fill-opacity:1;fill-rule:evenodd;stroke:#045264;stroke-width:1px;stroke-linecap:butt;stroke-linejoin:miter;stroke-opacity:1"
       d="m 196.04211,388.32721 c -13.08976,6.30106 -10.90869,13.44978 -7.27209,20.84194 -23.99846,31.02054 13.04159,21.645 18.42264,22.29601 20.19292,2.44297 18.65585,18.6742 31.44303,17.95988 20.17353,-1.12694 48.59328,-8.26388 63.09409,-15.53639 13.67806,-9.93526 0.96963,-51.86249 -9.2113,-56.22476 -15.46842,-12.92885 -75.62971,2.42349 -96.47637,10.66332 z"
       id="path4267"
       inkscape:connector-curvature="0"
       sodipodi:nodetypes="ccssccc" />
    <path
       sodipodi:nodetypes="ccsccc"
       inkscape:connector-curvature="0"
       id="path4269"
       d="m 233.79851,351.87452 c 34.76945,-2.69489 40.86953,7.66889 51.32678,26.27512 9.19207,26.47078 2.8956,37.39825 1.84815,38.19631 -3.46708,2.64158 -66.72246,10.5417 -78.86311,1.96671 -14.7528,-16.15817 -10.71557,-54.48891 -3.65224,-60.43248 3.22571,-2.45551 13.34648,-3.9845 29.34042,-6.00566 z"
       style="opacity:1;fill:#b8b8ba;fill-opacity:1;fill-rule:evenodd;stroke:#045264;stroke-width:3;stroke-linecap:butt;stroke-linejoin:miter;stroke-miterlimit:4;stroke-dasharray:none;stroke-opacity:1" />
    <path
       sodipodi:nodetypes="cscsc"
       inkscape:connector-curvature="0"
       id="path4271"
       d="m 201.94444,407.62401 c 4.51448,13.8256 17.14241,14.4891 43.94566,13.86087 27.39968,-0.64221 44.65104,-3.28005 43.52242,-17.24673 -7.61819,4.79664 -23.87485,5.9815 -43.80458,7.12442 -19.68031,1.12862 -34.63454,-2.32778 -43.6635,-3.73856 z"
       style="opacity:1;fill:#e4e4dc;fill-opacity:1;fill-rule:evenodd;stroke:#045264;stroke-width:3;stroke-linecap:butt;stroke-linejoin:miter;stroke-miterlimit:4;stroke-dasharray:none;stroke-opacity:1" />
    <path
       sodipodi:nodetypes="cccc"
       inkscape:connector-curvature="0"
       id="path4273"
       d="m 204.83434,358.05675 c 13.59163,-5.87566 57.16925,-12.77284 68.8377,3.1117 2.55425,11.49849 -13.1159,1.17577 -13.95573,1.0078 15.95687,29.39425 -49.00312,6.12649 -54.88197,-4.1195 z"
       style="opacity:1;fill:#e8e4e0;fill-opacity:1;fill-rule:evenodd;stroke:#045264;stroke-width:3;stroke-linecap:butt;stroke-linejoin:miter;stroke-miterlimit:4;stroke-dasharray:none;stroke-opacity:1" />
    <path
       sodipodi:nodetypes="ccc"
       inkscape:connector-curvature="0"
       id="path4275"
       d="m 236.35306,411.77072 c -1.58892,-22.48353 -12.93903,-28.29976 -28.94425,-30.85075 0.34664,12.73893 11.34922,25.41145 26.08132,26.45137"
       style="opacity:1;fill:#fc8e04;fill-opacity:1;fill-rule:evenodd;stroke:#045264;stroke-width:2;stroke-linecap:butt;stroke-linejoin:miter;stroke-miterlimit:4;stroke-dasharray:none;stroke-opacity:1" />
    <rect
       style="opacity:1;fill:#ece6e4;fill-opacity:1;fill-rule:nonzero;stroke:#3c9185;stroke-width:5;stroke-linecap:butt;stroke-linejoin:miter;stroke-miterlimit:4;stroke-dasharray:none;stroke-dashoffset:0;stroke-opacity:1"
       id="rect4277"
       width="233.30109"
       height="198.39235"
       x="375.1485"
       y="311.09296" />
    <path
       style="opacity:1;fill:#8db284;fill-opacity:1;fill-rule:evenodd;stroke:#90b484;stroke-width:1px;stroke-linecap:butt;stroke-linejoin:miter;stroke-opacity:1"
       d="m 415.87418,347.66553 c 12.18135,-13.70402 29.43827,-6.59823 35.52894,-6.09067 41.61962,-33.49872 58.36897,13.19647 81.20901,5.07556 25.88537,-19.28714 78.16367,15.2267 40.60451,66.99744 -1.01511,19.54091 11.31084,47.00231 -4.75834,58.36895 -28.2707,19.9975 -54.37198,-18.52579 -73.91289,8.6285 -11.42002,14.2116 -21.94385,12.3384 -39.72989,6.6468 -25.37781,-8.1209 -11.9744,-39.91153 -35.38845,-40.14554 -22.9756,-0.83606 -24.71613,-35.4858 -6.09067,-55.83119 7.04354,-7.69397 -3.5529,-37.05162 2.53778,-43.64985 z"
       id="path4279"
       inkscape:connector-curvature="0"
       sodipodi:nodetypes="ccccscscsc" />
    <path
       style="opacity:1;fill:#045264;fill-opacity:1;fill-rule:evenodd;stroke:#045264;stroke-width:1px;stroke-linecap:butt;stroke-linejoin:miter;stroke-opacity:1"
       d="m 441.75954,387.25491 c -13.70402,6.59823 -9.13601,15.22669 -7.61334,21.82492 -22.84004,32.48361 13.65359,22.66588 19.28714,23.34759 21.14052,2.55819 19.53133,19.55495 32.91857,18.80694 21.12023,-1.1801 50.87362,-8.65363 66.05491,-16.26916 14.31992,-10.40383 1.01511,-54.30852 -9.64357,-58.87653 -16.19429,-13.53864 -79.17879,2.53778 -101.00371,11.16624 z"
       id="path4281"
       inkscape:connector-curvature="0"
       sodipodi:nodetypes="ccssccc" />
    <path
       sodipodi:nodetypes="ccssccc"
       inkscape:connector-curvature="0"
       id="path4283"
       d="m 444.04211,388.32721 c -13.08976,6.30106 -10.90869,13.44978 -7.27209,20.84194 -23.99846,31.02054 13.04159,21.645 18.42264,22.29601 20.19292,2.44297 18.65585,18.6742 31.44303,17.95988 20.17353,-1.12694 48.59328,-8.26388 63.09409,-15.53639 13.67806,-9.93526 0.96963,-51.86249 -9.2113,-56.22476 -15.46842,-12.92885 -75.62971,2.42349 -96.47637,10.66332 z"
       style="opacity:1;fill:#f45a04;fill-opacity:1;fill-rule:evenodd;stroke:#045264;stroke-width:1px;stroke-linecap:butt;stroke-linejoin:miter;stroke-opacity:1" />
    <path
       style="opacity:1;fill:#b8b8ba;fill-opacity:1;fill-rule:evenodd;stroke:#045264;stroke-width:3;stroke-linecap:butt;stroke-linejoin:miter;stroke-miterlimit:4;stroke-dasharray:none;stroke-opacity:1"
       d="m 481.79851,351.87452 c 34.76945,-2.69489 40.86953,7.66889 51.32678,26.27512 9.19207,26.47078 2.8956,37.39825 1.84815,38.19631 -3.46708,2.64158 -66.72246,10.5417 -78.86311,1.96671 -14.7528,-16.15817 -10.71557,-54.48891 -3.65224,-60.43248 3.22571,-2.45551 13.34648,-3.9845 29.34042,-6.00566 z"
       id="path4285"
       inkscape:connector-curvature="0"
       sodipodi:nodetypes="ccsccc" />
    <path
       style="opacity:1;fill:#e4e4dc;fill-opacity:1;fill-rule:evenodd;stroke:#045264;stroke-width:3;stroke-linecap:butt;stroke-linejoin:miter;stroke-miterlimit:4;stroke-dasharray:none;stroke-opacity:1"
       d="m 449.94444,407.62401 c 4.51448,13.8256 17.14241,14.4891 43.94566,13.86087 27.39968,-0.64221 44.65104,-3.28005 43.52242,-17.24673 -7.61819,4.79664 -23.87485,5.9815 -43.80458,7.12442 -19.68031,1.12862 -34.63454,-2.32778 -43.6635,-3.73856 z"
       id="path4287"
       inkscape:connector-curvature="0"
       sodipodi:nodetypes="cscsc" />
    <path
       style="opacity:1;fill:#e8e4e0;fill-opacity:1;fill-rule:evenodd;stroke:#045264;stroke-width:3;stroke-linecap:butt;stroke-linejoin:miter;stroke-miterlimit:4;stroke-dasharray:none;stroke-opacity:1"
       d="m 452.83434,358.05675 c 13.59163,-5.87566 57.16925,-12.77284 68.8377,3.1117 2.55425,11.49849 -13.1159,1.17577 -13.95573,1.0078 15.95687,29.39425 -49.00312,6.12649 -54.88197,-4.1195 z"
       id="path4289"
       inkscape:connector-curvature="0"
       sodipodi:nodetypes="cccc" />
    <path
       style="opacity:1;fill:#fc8e04;fill-opacity:1;fill-rule:evenodd;stroke:#045264;stroke-width:2;stroke-linecap:butt;stroke-linejoin:miter;stroke-miterlimit:4;stroke-dasharray:none;stroke-opacity:1"
       d="m 484.35306,411.77072 c -1.58892,-22.48353 -12.93903,-28.29976 -28.94425,-30.85075 0.34664,12.73893 11.34922,25.41145 26.08132,26.45137"
       id="path4291"
       inkscape:connector-curvature="0"
       sodipodi:nodetypes="ccc" />
  </g>
</svg>
