<?xml version="1.0" encoding="UTF-8" standalone="no"?>
<!-- Created with Inkscape (http://www.inkscape.org/) -->

<svg
   xmlns:dc="http://purl.org/dc/elements/1.1/"
   xmlns:cc="http://creativecommons.org/ns#"
   xmlns:rdf="http://www.w3.org/1999/02/22-rdf-syntax-ns#"
   xmlns:svg="http://www.w3.org/2000/svg"
   xmlns="http://www.w3.org/2000/svg"
   xmlns:xlink="http://www.w3.org/1999/xlink"
   xmlns:sodipodi="http://sodipodi.sourceforge.net/DTD/sodipodi-0.dtd"
   xmlns:inkscape="http://www.inkscape.org/namespaces/inkscape"
   id="svg4653"
   version="1.1"
   viewBox="0 0 241.3 104.775"
   height="4.125in"
   width="9.5in"
   inkscape:version="0.92.0 r15299"
   sodipodi:docname="MakeTopGuideLine.svg">
  <sodipodi:namedview
     inkscape:window-maximized="1"
     inkscape:window-y="-8"
     inkscape:window-x="-8"
     inkscape:window-height="706"
     inkscape:window-width="1024"
     inkscape:showpageshadow="false"
     units="in"
     showgrid="false"
     inkscape:current-layer="svg4653"
     inkscape:document-units="in"
     inkscape:cy="198"
     inkscape:cx="456"
     inkscape:zoom="0.66136193"
     inkscape:pageshadow="2"
     inkscape:pageopacity="0.0"
     borderopacity="1.0"
     bordercolor="#666666"
     pagecolor="#ffffff"
     id="base"
     showguides="false"
     inkscape:guide-bbox="true"
     inkscape:snap-global="false"
     inkscape:snap-grids="false"
     inkscape:snap-to-guides="true"
     inkscape:snap-bbox="true">
    <sodipodi:guide
       inkscape:color="rgb(0,0,255)"
       inkscape:label=""
       inkscape:locked="false"
       id="guide5336"
       orientation="1,0"
       position="6.35,6.35" />
    <sodipodi:guide
       inkscape:color="rgb(0,0,255)"
       inkscape:label=""
       inkscape:locked="false"
       id="guide5338"
       orientation="0,1"
       position="6.35,98.425" />
    <sodipodi:guide
       inkscape:color="rgb(0,0,255)"
       inkscape:label=""
       inkscape:locked="false"
       id="guide5340"
       orientation="0,1"
       position="6.35,6.35" />
  </sodipodi:namedview>
  <defs
     id="defs4647">
    <marker
       inkscape:isstock="true"
       style="overflow:visible;"
       id="Arrow1Send"
       refX="0.0"
       refY="0.0"
       orient="auto"
       inkscape:stockid="Arrow1Send">
      <path
         transform="scale(0.2) rotate(180) translate(6,0)"
         style="fill-rule:evenodd;stroke:#0000ff;stroke-width:1pt;stroke-opacity:1;fill:#0000ff;fill-opacity:1"
         d="M 0.0,0.0 L 5.0,-5.0 L -12.5,0.0 L 5.0,5.0 L 0.0,0.0 z "
         id="path6343" />
    </marker>
    <clipPath
       clipPathUnits="userSpaceOnUse"
       id="clipPath5509">
      <rect
         style="opacity:1;fill:#ffffff;fill-opacity:1;stroke:#ffffff;stroke-width:1.32291663;stroke-linecap:round;stroke-miterlimit:4;stroke-dasharray:none;stroke-opacity:1"
         id="rect5511"
         width="15.847868"
         height="31.064625"
         x="114.23087"
         y="96.938194" />
    </clipPath>
    <clipPath
       clipPathUnits="userSpaceOnUse"
       id="clipPath5505">
      <rect
         style="opacity:1;fill:#ffffff;fill-opacity:1;stroke:#ffffff;stroke-width:1.32291663;stroke-linecap:round;stroke-miterlimit:4;stroke-dasharray:none;stroke-opacity:1"
         id="rect5507"
         width="15.847868"
         height="31.064625"
         x="114.23087"
         y="96.938194" />
    </clipPath>
    <clipPath
       clipPathUnits="userSpaceOnUse"
       id="clipPath5497">
      <rect
         style="opacity:1;fill:#ffffff;fill-opacity:1;stroke:#ffffff;stroke-width:1.32291663;stroke-linecap:round;stroke-miterlimit:4;stroke-dasharray:none;stroke-opacity:1"
         id="rect5499"
         width="15.847868"
         height="31.064625"
         x="114.23087"
         y="96.938194" />
    </clipPath>
    <clipPath
       clipPathUnits="userSpaceOnUse"
       id="clipPath5493">
      <rect
         style="opacity:1;fill:#ffffff;fill-opacity:1;stroke:#ffffff;stroke-width:1.32291663;stroke-linecap:round;stroke-miterlimit:4;stroke-dasharray:none;stroke-opacity:1"
         id="rect5495"
         width="15.847868"
         height="31.064625"
         x="114.23087"
         y="96.938194" />
    </clipPath>
    <clipPath
       clipPathUnits="userSpaceOnUse"
       id="clipPath5489">
      <rect
         style="opacity:1;fill:#ffffff;fill-opacity:1;stroke:#ffffff;stroke-width:1.32291663;stroke-linecap:round;stroke-miterlimit:4;stroke-dasharray:none;stroke-opacity:1"
         id="rect5491"
         width="15.847868"
         height="31.064625"
         x="114.23087"
         y="96.938194" />
    </clipPath>
    <clipPath
       clipPathUnits="userSpaceOnUse"
       id="clipPath5485">
      <rect
         style="opacity:1;fill:#ffffff;fill-opacity:1;stroke:#ffffff;stroke-width:1.32291663;stroke-linecap:round;stroke-miterlimit:4;stroke-dasharray:none;stroke-opacity:1"
         id="rect5487"
         width="15.847868"
         height="31.064625"
         x="114.23087"
         y="96.938194" />
    </clipPath>
    <clipPath
       clipPathUnits="userSpaceOnUse"
       id="clipPath5509-3">
      <rect
         style="opacity:1;fill:#ffffff;fill-opacity:1;stroke:#ffffff;stroke-width:1.32291663;stroke-linecap:round;stroke-miterlimit:4;stroke-dasharray:none;stroke-opacity:1"
         id="rect5511-4"
         width="15.847868"
         height="31.064625"
         x="114.23087"
         y="96.938194" />
    </clipPath>
    <clipPath
       clipPathUnits="userSpaceOnUse"
       id="clipPath5505-6">
      <rect
         style="opacity:1;fill:#ffffff;fill-opacity:1;stroke:#ffffff;stroke-width:1.32291663;stroke-linecap:round;stroke-miterlimit:4;stroke-dasharray:none;stroke-opacity:1"
         id="rect5507-5"
         width="15.847868"
         height="31.064625"
         x="114.23087"
         y="96.938194" />
    </clipPath>
    <clipPath
       clipPathUnits="userSpaceOnUse"
       id="clipPath5497-5">
      <rect
         style="opacity:1;fill:#ffffff;fill-opacity:1;stroke:#ffffff;stroke-width:1.32291663;stroke-linecap:round;stroke-miterlimit:4;stroke-dasharray:none;stroke-opacity:1"
         id="rect5499-1"
         width="15.847868"
         height="31.064625"
         x="114.23087"
         y="96.938194" />
    </clipPath>
    <clipPath
       clipPathUnits="userSpaceOnUse"
       id="clipPath5493-7">
      <rect
         style="opacity:1;fill:#ffffff;fill-opacity:1;stroke:#ffffff;stroke-width:1.32291663;stroke-linecap:round;stroke-miterlimit:4;stroke-dasharray:none;stroke-opacity:1"
         id="rect5495-2"
         width="15.847868"
         height="31.064625"
         x="114.23087"
         y="96.938194" />
    </clipPath>
    <clipPath
       clipPathUnits="userSpaceOnUse"
       id="clipPath5489-0">
      <rect
         style="opacity:1;fill:#ffffff;fill-opacity:1;stroke:#ffffff;stroke-width:1.32291663;stroke-linecap:round;stroke-miterlimit:4;stroke-dasharray:none;stroke-opacity:1"
         id="rect5491-7"
         width="15.847868"
         height="31.064625"
         x="114.23087"
         y="96.938194" />
    </clipPath>
    <clipPath
       clipPathUnits="userSpaceOnUse"
       id="clipPath5485-7">
      <rect
         style="opacity:1;fill:#ffffff;fill-opacity:1;stroke:#ffffff;stroke-width:1.32291663;stroke-linecap:round;stroke-miterlimit:4;stroke-dasharray:none;stroke-opacity:1"
         id="rect5487-4"
         width="15.847868"
         height="31.064625"
         x="114.23087"
         y="96.938194" />
    </clipPath>
    <clipPath
       clipPathUnits="userSpaceOnUse"
       id="clipPath5509-9">
      <rect
         style="opacity:1;fill:#ffffff;fill-opacity:1;stroke:#ffffff;stroke-width:1.32291663;stroke-linecap:round;stroke-miterlimit:4;stroke-dasharray:none;stroke-opacity:1"
         id="rect5511-40"
         width="15.847868"
         height="31.064625"
         x="114.23087"
         y="96.938194" />
    </clipPath>
    <clipPath
       clipPathUnits="userSpaceOnUse"
       id="clipPath5505-7">
      <rect
         style="opacity:1;fill:#ffffff;fill-opacity:1;stroke:#ffffff;stroke-width:1.32291663;stroke-linecap:round;stroke-miterlimit:4;stroke-dasharray:none;stroke-opacity:1"
         id="rect5507-6"
         width="15.847868"
         height="31.064625"
         x="114.23087"
         y="96.938194" />
    </clipPath>
    <clipPath
       clipPathUnits="userSpaceOnUse"
       id="clipPath5497-3">
      <rect
         style="opacity:1;fill:#ffffff;fill-opacity:1;stroke:#ffffff;stroke-width:1.32291663;stroke-linecap:round;stroke-miterlimit:4;stroke-dasharray:none;stroke-opacity:1"
         id="rect5499-0"
         width="15.847868"
         height="31.064625"
         x="114.23087"
         y="96.938194" />
    </clipPath>
    <clipPath
       clipPathUnits="userSpaceOnUse"
       id="clipPath5493-6">
      <rect
         style="opacity:1;fill:#ffffff;fill-opacity:1;stroke:#ffffff;stroke-width:1.32291663;stroke-linecap:round;stroke-miterlimit:4;stroke-dasharray:none;stroke-opacity:1"
         id="rect5495-0"
         width="15.847868"
         height="31.064625"
         x="114.23087"
         y="96.938194" />
    </clipPath>
    <clipPath
       clipPathUnits="userSpaceOnUse"
       id="clipPath5489-9">
      <rect
         style="opacity:1;fill:#ffffff;fill-opacity:1;stroke:#ffffff;stroke-width:1.32291663;stroke-linecap:round;stroke-miterlimit:4;stroke-dasharray:none;stroke-opacity:1"
         id="rect5491-6"
         width="15.847868"
         height="31.064625"
         x="114.23087"
         y="96.938194" />
    </clipPath>
    <clipPath
       clipPathUnits="userSpaceOnUse"
       id="clipPath5485-2">
      <rect
         style="opacity:1;fill:#ffffff;fill-opacity:1;stroke:#ffffff;stroke-width:1.32291663;stroke-linecap:round;stroke-miterlimit:4;stroke-dasharray:none;stroke-opacity:1"
         id="rect5487-49"
         width="15.847868"
         height="31.064625"
         x="114.23087"
         y="96.938194" />
    </clipPath>
    <clipPath
       clipPathUnits="userSpaceOnUse"
       id="clipPath5509-9-9">
      <rect
         style="opacity:1;fill:#ffffff;fill-opacity:1;stroke:#ffffff;stroke-width:1.32291663;stroke-linecap:round;stroke-miterlimit:4;stroke-dasharray:none;stroke-opacity:1"
         id="rect5511-40-3"
         width="15.847868"
         height="31.064625"
         x="114.23087"
         y="96.938194" />
    </clipPath>
    <clipPath
       clipPathUnits="userSpaceOnUse"
       id="clipPath5505-7-9">
      <rect
         style="opacity:1;fill:#ffffff;fill-opacity:1;stroke:#ffffff;stroke-width:1.32291663;stroke-linecap:round;stroke-miterlimit:4;stroke-dasharray:none;stroke-opacity:1"
         id="rect5507-6-2"
         width="15.847868"
         height="31.064625"
         x="114.23087"
         y="96.938194" />
    </clipPath>
    <clipPath
       clipPathUnits="userSpaceOnUse"
       id="clipPath5497-3-4">
      <rect
         style="opacity:1;fill:#ffffff;fill-opacity:1;stroke:#ffffff;stroke-width:1.32291663;stroke-linecap:round;stroke-miterlimit:4;stroke-dasharray:none;stroke-opacity:1"
         id="rect5499-0-0"
         width="15.847868"
         height="31.064625"
         x="114.23087"
         y="96.938194" />
    </clipPath>
    <clipPath
       clipPathUnits="userSpaceOnUse"
       id="clipPath5493-6-0">
      <rect
         style="opacity:1;fill:#ffffff;fill-opacity:1;stroke:#ffffff;stroke-width:1.32291663;stroke-linecap:round;stroke-miterlimit:4;stroke-dasharray:none;stroke-opacity:1"
         id="rect5495-0-0"
         width="15.847868"
         height="31.064625"
         x="114.23087"
         y="96.938194" />
    </clipPath>
    <clipPath
       clipPathUnits="userSpaceOnUse"
       id="clipPath5489-9-6">
      <rect
         style="opacity:1;fill:#ffffff;fill-opacity:1;stroke:#ffffff;stroke-width:1.32291663;stroke-linecap:round;stroke-miterlimit:4;stroke-dasharray:none;stroke-opacity:1"
         id="rect5491-6-8"
         width="15.847868"
         height="31.064625"
         x="114.23087"
         y="96.938194" />
    </clipPath>
    <clipPath
       clipPathUnits="userSpaceOnUse"
       id="clipPath5485-2-3">
      <rect
         style="opacity:1;fill:#ffffff;fill-opacity:1;stroke:#ffffff;stroke-width:1.32291663;stroke-linecap:round;stroke-miterlimit:4;stroke-dasharray:none;stroke-opacity:1"
         id="rect5487-49-6"
         width="15.847868"
         height="31.064625"
         x="114.23087"
         y="96.938194" />
    </clipPath>
    <radialGradient
       r="75.953125"
       fy="654.94067"
       fx="425.50055"
       cy="654.94067"
       cx="425.50055"
       gradientTransform="matrix(-2.2836404,0.00277137,-0.00170492,-1.4048878,1546.8679,1574.1487)"
       gradientUnits="userSpaceOnUse"
       id="radialGradient9518"
       xlink:href="#linearGradient4759"
       inkscape:collect="always" />
    <linearGradient
       inkscape:collect="always"
       id="linearGradient4759">
      <stop
         style="stop-color:#ffff00;stop-opacity:1;"
         offset="0"
         id="stop4755" />
      <stop
         style="stop-color:#ffff00;stop-opacity:0;"
         offset="1"
         id="stop4757" />
    </linearGradient>
    <radialGradient
       r="75.953125"
       fy="657.36682"
       fx="428.88245"
       cy="657.36682"
       cx="428.88245"
       gradientTransform="matrix(-2.498027,0.02627061,-0.01682302,-1.5996697,1653.1496,1693.6623)"
       gradientUnits="userSpaceOnUse"
       id="radialGradient9520"
       xlink:href="#linearGradient4759"
       inkscape:collect="always" />
    <linearGradient
       gradientTransform="matrix(-1,0,0,1,102.06616,0)"
       gradientUnits="userSpaceOnUse"
       y2="55.791477"
       x2="56.115829"
       y1="55.791477"
       x1="45.950329"
       id="linearGradient11720"
       xlink:href="#linearGradient11718"
       inkscape:collect="always" />
    <linearGradient
       id="linearGradient11718"
       inkscape:collect="always">
      <stop
         id="stop11714"
         offset="0"
         style="stop-color:#00d900;stop-opacity:1;" />
      <stop
         id="stop11716"
         offset="1"
         style="stop-color:#00d900;stop-opacity:0;" />
    </linearGradient>
    <linearGradient
       y2="30.63489"
       x2="31.086468"
       y1="76.223083"
       x1="30.856554"
       gradientTransform="matrix(0.73112796,0,0,0.67075716,-2.765738,-14.198564)"
       gradientUnits="userSpaceOnUse"
       id="linearGradient9514"
       xlink:href="#linearGradient4590"
       inkscape:collect="always" />
    <linearGradient
       id="linearGradient4590"
       inkscape:collect="always">
      <stop
         id="stop4586"
         offset="0"
         style="stop-color:#a4dacc;stop-opacity:1" />
      <stop
         id="stop4588"
         offset="1"
         style="stop-color:#d2d2d2;stop-opacity:0;" />
    </linearGradient>
  </defs>
  <metadata
     id="metadata4650">
    <rdf:RDF>
      <cc:Work
         rdf:about="">
        <dc:format>image/svg+xml</dc:format>
        <dc:type
           rdf:resource="http://purl.org/dc/dcmitype/StillImage" />
        <dc:title></dc:title>
      </cc:Work>
    </rdf:RDF>
  </metadata>
  <g
     transform="translate(0,-192.225)"
     id="layer1"
     inkscape:groupmode="layer"
     inkscape:label="Layer 1" />
  <g
     id="printing-marks"
     inkscape:label="Printing Marks"
     inkscape:groupmode="layer"
     sodipodi:insensitive="true">
    <g
       id="CropMarks"
       inkscape:label="CropMarks">
      <path
         d="M 0,-1.32291666664 L 0,-11.3229166666"
         id="cropTL1"
         style="stroke:#000000;stroke-width:0.25;fill:none" />
      <path
         d="M -1.32291666664,0 L -11.3229166666,0"
         id="cropTL2"
         style="stroke:#000000;stroke-width:0.25;fill:none" />
      <path
         d="M 241.299999995,-1.32291666664 L 241.299999995,-11.3229166666"
         id="cropTR1"
         style="stroke:#000000;stroke-width:0.25;fill:none" />
      <path
         d="M 242.622916662,0 L 252.622916662,0"
         id="cropTR2"
         style="stroke:#000000;stroke-width:0.25;fill:none" />
      <path
         d="M 0,106.097916665 L 0,116.097916665"
         id="cropBL1"
         style="stroke:#000000;stroke-width:0.25;fill:none" />
      <path
         d="M -1.32291666664,104.774999998 L -11.3229166666,104.774999998"
         id="cropBL2"
         style="stroke:#000000;stroke-width:0.25;fill:none" />
      <path
         d="M 241.299999995,106.097916665 L 241.299999995,116.097916665"
         id="cropBR1"
         style="stroke:#000000;stroke-width:0.25;fill:none" />
      <path
         d="M 242.622916662,104.774999998 L 252.622916662,104.774999998"
         id="cropBR2"
         style="stroke:#000000;stroke-width:0.25;fill:none" />
    </g>
  </g>
  <text
     xml:space="preserve"
     style="font-style:normal;font-variant:normal;font-weight:bold;font-stretch:normal;font-size:5.64444447px;line-height:6.61458302px;font-family:'Bell MT';-inkscape-font-specification:'Bell MT Bold';letter-spacing:0px;word-spacing:0px;fill:#000000;fill-opacity:1;stroke:none;stroke-width:0.26458332"
     x="7.0881758"
     y="92.709717"
     id="text6816"><tspan
       sodipodi:role="line"
       x="7.0881758"
       y="92.709717"
       style="font-style:normal;font-variant:normal;font-weight:bold;font-stretch:normal;font-family:'Bell MT';-inkscape-font-specification:'Bell MT Bold';stroke-width:0.26458332"
       id="tspan6814">1200 Lakesview Drive</tspan></text>
  <text
     xml:space="preserve"
     style="font-style:normal;font-variant:normal;font-weight:bold;font-stretch:normal;font-size:5.64444447px;line-height:6.61458302px;font-family:'Bell MT';-inkscape-font-specification:'Bell MT Bold';letter-spacing:0px;word-spacing:0px;fill:#000000;fill-opacity:1;stroke:none;stroke-width:0.26458332"
     x="7.5429282"
     y="97.463661"
     id="text6820"><tspan
       sodipodi:role="line"
       id="tspan6818"
       x="7.5429282"
       y="97.463661"
       style="font-style:normal;font-variant:normal;font-weight:bold;font-stretch:normal;font-family:'Bell MT';-inkscape-font-specification:'Bell MT Bold';stroke-width:0.26458332">Orange, California 07220</tspan></text>
  <path
     style="opacity:0.497;fill:url(#linearGradient9514);fill-opacity:1;stroke:none;stroke-width:1.00803709;stroke-linecap:round;stroke-miterlimit:4;stroke-dasharray:none;stroke-opacity:1"
     d="m 6.35,6.35 v 30.560841 c 0.481635,1.53e-4 0.963445,0.176159 1.44508,0.357574 0.481635,0.181414 0.963221,0.328305 1.444856,0.298492 0.481635,-0.02981 0.96322,-0.230338 1.444855,-0.406834 0.481635,-0.176488 0.963221,-0.29028 1.444856,-0.231317 0.481634,0.05896 0.96322,0.27832 1.444856,0.445071 0.481635,0.166754 0.963445,0.244274 1.44508,0.157774 0.481636,-0.0865 0.963222,-0.318614 1.444856,-0.471083 0.481635,-0.152466 0.963221,-0.1916 1.444856,-0.07992 0.481634,0.111683 0.963221,0.35015 1.444855,0.484174 0.481636,0.134017 0.963446,0.133816 1.445081,0 0.481635,-0.133818 0.963221,-0.372252 1.444855,-0.484174 0.481636,-0.111919 0.963221,-0.07238 1.444857,0.07992 0.481635,0.152302 0.96322,0.384315 1.444855,0.471083 0.481635,0.08677 0.963221,0.0089 1.444856,-0.157774 0.481636,-0.166632 0.963447,-0.385828 1.445081,-0.445071 0.481634,-0.05925 0.96322,0.0549 1.444856,0.231317 0.481634,0.176419 0.96322,0.376727 1.444854,0.406834 0.481637,0.03011 0.963221,-0.117105 1.444858,-0.298492 0.481635,-0.181391 0.963221,-0.357421 1.444855,-0.357574 h 0.02045 V 6.35 Z"
     id="path9440"
     inkscape:connector-curvature="0" />
  <g
     transform="translate(-27.848039,-28.880734)"
     id="g11730">
    <path
       id="path11698"
       d="m 57.306384,55.791478 a 6.2733048,6.1668605 0 0 1 -6.273305,6.16686 6.2733048,6.1668605 0 0 1 -6.273305,-6.16686 6.2733048,6.1668605 0 0 1 6.273305,-6.166861 6.2733048,6.1668605 0 0 1 6.273305,6.166861 z"
       style="opacity:1;fill:#00d900;fill-opacity:1;stroke:#00d900;stroke-width:0.62198561;stroke-linecap:round;stroke-miterlimit:4;stroke-dasharray:none;stroke-opacity:1"
       inkscape:connector-curvature="0" />
    <path
       id="path11700"
       d="m 56.84463,55.791478 a 5.8115511,5.7129417 0 0 1 -5.811551,5.712941 5.8115511,5.7129417 0 0 1 -5.811551,-5.712941 5.8115511,5.7129417 0 0 1 5.811551,-5.712942 5.8115511,5.7129417 0 0 1 5.811551,5.712942 z"
       style="opacity:1;fill:#ffffff;fill-opacity:1;stroke:none;stroke-width:0.57620358;stroke-linecap:round;stroke-miterlimit:4;stroke-dasharray:none;stroke-opacity:1"
       inkscape:connector-curvature="0" />
    <path
       id="path11702"
       d="m 45.950328,55.791478 a 5.0827509,4.9965074 0 0 0 5.082751,4.996507 5.0827509,4.9965074 0 0 0 5.082751,-4.996507 5.0827509,4.9965074 0 0 0 -5.082751,-4.996508 5.0827509,4.9965074 0 0 0 -5.082751,4.996508 z"
       style="opacity:1;fill:url(#linearGradient11720);fill-opacity:1;stroke:none;stroke-width:0.01007888;stroke-linecap:round;stroke-miterlimit:4;stroke-dasharray:none;stroke-opacity:1"
       inkscape:connector-curvature="0" />
    <path
       id="path11704"
       d="m 50.788676,50.353474 h 0.48881 v 10.876004 h -0.48881 z"
       style="opacity:1;fill:#ffffff;fill-opacity:1;stroke:none;stroke-width:0.51390803;stroke-linecap:round;stroke-miterlimit:4;stroke-dasharray:none;stroke-opacity:1"
       inkscape:connector-curvature="0" />
    <path
       id="path11706"
       d="m 56.129402,53.878597 0.15105,0.464885 -10.343693,3.360869 -0.15105,-0.464884 z"
       style="opacity:1;fill:#ffffff;fill-opacity:1;stroke:none;stroke-width:0.51390803;stroke-linecap:round;stroke-miterlimit:4;stroke-dasharray:none;stroke-opacity:1"
       inkscape:connector-curvature="0" />
    <path
       id="path11708"
       d="m 54.427186,60.047253 -0.395455,0.287316 -6.392754,-8.798872 0.395454,-0.287315 z"
       style="opacity:1;fill:#ffffff;fill-opacity:1;stroke:none;stroke-width:0.51390803;stroke-linecap:round;stroke-miterlimit:4;stroke-dasharray:none;stroke-opacity:1"
       inkscape:connector-curvature="0" />
    <path
       id="path11710"
       d="m 48.034429,60.334568 -0.395454,-0.287315 6.392754,-8.798871 0.395454,0.287315 z"
       style="opacity:1;fill:#ffffff;fill-opacity:1;stroke:none;stroke-width:0.51390803;stroke-linecap:round;stroke-miterlimit:4;stroke-dasharray:none;stroke-opacity:1"
       inkscape:connector-curvature="0" />
    <path
       id="path11712"
       d="m 45.785705,54.343481 0.15105,-0.464886 10.343694,3.36087 -0.151051,0.464885 z"
       style="opacity:1;fill:#ffffff;fill-opacity:1;stroke:none;stroke-width:0.51390803;stroke-linecap:round;stroke-miterlimit:4;stroke-dasharray:none;stroke-opacity:1"
       inkscape:connector-curvature="0" />
  </g>
  <g
     id="g9470"
     transform="matrix(0.49525899,0,0,0.48685551,0.321071,-13.399522)">
    <g
       id="g9468"
       transform="translate(-5.2144152,0.96563244)">
      <g
         id="g9464"
         transform="matrix(0.78869758,0,0,0.78869758,-73.209651,-64.198258)">
        <path
           inkscape:connector-curvature="0"
           style="opacity:1;fill:#08db00;fill-opacity:1;stroke:none;stroke-width:0.02645833;stroke-linecap:round;stroke-miterlimit:4;stroke-dasharray:none;stroke-opacity:1"
           d="m 132.80806,175.94199 a 19.554241,14.917668 0 0 0 -19.40916,13.19144 1.814311,1.6069392 0 0 0 -1.22834,1.51929 1.814311,1.6069392 0 0 0 1.16995,1.50016 19.554241,14.917668 0 0 0 19.46755,13.6245 19.554241,14.917668 0 0 0 19.55436,-14.91744 19.554241,14.917668 0 0 0 -19.55436,-14.91795 z"
           id="path9458" />
        <path
           id="path9460"
           transform="matrix(0.26458333,0,0,0.26458333,0,17.6)"
           d="m 502.10156,598.08789 a 73.905793,56.381739 0 0 0 -73.35742,49.85742 6.8572385,6.073471 0 0 0 -4.64258,5.74219 6.8572385,6.073471 0 0 0 4.42188,5.66992 73.905793,56.381739 0 0 0 73.57812,51.49414 73.905793,56.381739 0 0 0 73.90625,-56.38086 73.905793,56.381739 0 0 0 -73.90625,-56.38281 z"
           style="opacity:1;fill:url(#radialGradient9518);fill-opacity:1;stroke:none;stroke-width:0.09999999;stroke-linecap:round;stroke-miterlimit:4;stroke-dasharray:none;stroke-opacity:1"
           inkscape:connector-curvature="0" />
        <path
           style="opacity:1;fill:url(#radialGradient9520);fill-opacity:1;stroke:none;stroke-width:0.09999999;stroke-linecap:round;stroke-miterlimit:4;stroke-dasharray:none;stroke-opacity:1"
           d="m 502.10156,598.08789 a 73.905793,56.381739 0 0 0 -73.35742,49.85742 6.8572385,6.073471 0 0 0 -4.64258,5.74219 6.8572385,6.073471 0 0 0 4.42188,5.66992 73.905793,56.381739 0 0 0 73.57812,51.49414 73.905793,56.381739 0 0 0 73.90625,-56.38086 73.905793,56.381739 0 0 0 -73.90625,-56.38281 z"
           transform="matrix(0.26458333,0,0,0.26458333,0,17.6)"
           id="path9462"
           inkscape:connector-curvature="0" />
      </g>
      <path
         style="opacity:1;fill:#69fa00;fill-opacity:1;stroke:none;stroke-width:0.00466183;stroke-linecap:round;stroke-miterlimit:4;stroke-dasharray:none;stroke-opacity:1"
         inkscape:transform-center-x="0.10882605"
         inkscape:transform-center-y="-0.076332002"
         d="m 44.415779,87.932523 -0.886042,-0.907835 -1.327817,0.641276 0.541793,-1.0274 -0.80298,-0.916144 0.973487,0.104623 0.74436,-1.332494 0.160042,1.376111 1.431987,0.100649 -1.197617,0.522558 z"
         id="path9466"
         inkscape:connector-curvature="0"
         sodipodi:nodetypes="ccccccccccc" />
    </g>
  </g>
  <g
     transform="matrix(0.43503445,0,0,0.42765287,-2.279135,-6.993452)"
     id="g9500">
    <g
       id="g9496"
       transform="matrix(0.40515577,0,0,0.40515577,9.6135841,7.1731312)">
      <text
         xml:space="preserve"
         style="font-style:normal;font-variant:normal;font-weight:normal;font-stretch:normal;font-size:27.51666641px;line-height:50.79999924px;font-family:ArkonaC;-inkscape-font-specification:ArkonaC;letter-spacing:0px;word-spacing:0px;fill:#000000;fill-opacity:1;stroke:none;stroke-width:0.72214383"
         x="27.939159"
         y="132.54402"
         id="text9490"><tspan
           sodipodi:role="line"
           x="27.939159"
           y="132.54402"
           style="font-style:normal;font-variant:normal;font-weight:normal;font-stretch:normal;font-family:'Modern Antiqua';-inkscape-font-specification:'Modern Antiqua';stroke-width:0.72214383"
           id="tspan9488">Bar &amp; Soap</tspan></text>
      <text
         id="text9494"
         y="108.36543"
         x="25.520702"
         style="font-style:normal;font-variant:normal;font-weight:normal;font-stretch:normal;font-size:50.79999924px;line-height:50.79999924px;font-family:ArkonaC;-inkscape-font-specification:ArkonaC;letter-spacing:0px;word-spacing:0px;fill:#000000;fill-opacity:1;stroke:none;stroke-width:0.72214383"
         xml:space="preserve"><tspan
           id="tspan9492"
           style="font-style:normal;font-variant:normal;font-weight:normal;font-stretch:normal;font-family:'Modern Antiqua';-inkscape-font-specification:'Modern Antiqua';stroke-width:0.72214383"
           y="108.36543"
           x="25.520702"
           sodipodi:role="line">Citrus</tspan></text>
    </g>
    <path
       style="fill:#00d900;fill-opacity:1;stroke:#ffffff;stroke-width:0.25400001;stroke-linecap:butt;stroke-linejoin:miter;stroke-miterlimit:4;stroke-dasharray:none;stroke-opacity:1"
       d="m 37.052062,34.595899 c -2.562882,3.435993 -1.857301,5.020103 0,5.502913 0,0 2.787406,-1.834306 0,-5.502913 z"
       id="path9498"
       inkscape:connector-curvature="0"
       sodipodi:nodetypes="ccc" />
  </g>
  <g
     transform="matrix(0.83040014,1.0094714,-1.0094714,0.83040014,35.266812,-68.05604)"
     id="g6998">
    <path
       style="opacity:1;fill:#00d900;fill-opacity:1;stroke:#00d900;stroke-width:0.58850569;stroke-linecap:round;stroke-miterlimit:4;stroke-dasharray:none;stroke-opacity:1"
       d="m 53.420054,46.788661 v 11.930124 a 5.796583,5.9748776 0 0 0 5.577135,-5.966564 5.796583,5.9748776 0 0 0 -5.577135,-5.96356 z"
       id="path6919"
       inkscape:connector-curvature="0" />
    <path
       inkscape:connector-curvature="0"
       style="opacity:1;fill:#ffffff;fill-opacity:1;stroke:none;stroke-width:0.57620358;stroke-linecap:round;stroke-miterlimit:4;stroke-dasharray:none;stroke-opacity:1"
       d="M 53.125801,58.456735 A 5.8115511,5.7129417 0 0 0 58.697553,52.752173 5.8115511,5.7129417 0 0 0 53.125801,47.05123 Z"
       id="path6927" />
    <path
       inkscape:connector-curvature="0"
       style="opacity:1;fill:#00d900;fill-opacity:1;stroke:none;stroke-width:0.01007888;stroke-linecap:round;stroke-miterlimit:4;stroke-dasharray:none;stroke-opacity:1"
       d="m 53.125801,57.731197 a 5.0827508,4.9965072 0 0 0 4.733044,-4.979024 5.0827508,4.9965072 0 0 0 -4.733044,-4.984708 z"
       id="path6932" />
    <path
       inkscape:connector-curvature="0"
       style="opacity:1;fill:#ffffff;fill-opacity:1;stroke:none;stroke-width:0.51920271;stroke-linecap:round;stroke-miterlimit:4;stroke-dasharray:none;stroke-opacity:1"
       d="m 53.120994,52.895318 4.999337,-1.591117 -0.154549,-0.46509 -4.844788,1.542542 z"
       id="path6950" />
    <path
       inkscape:connector-curvature="0"
       style="opacity:1;fill:#ffffff;fill-opacity:1;stroke:none;stroke-width:0.51763219;stroke-linecap:round;stroke-miterlimit:4;stroke-dasharray:none;stroke-opacity:1"
       d="m 53.122057,53.572797 2.743565,3.722253 0.401075,-0.287321 -3.14464,-4.266406 z"
       id="path6940" />
    <path
       inkscape:connector-curvature="0"
       style="opacity:1;fill:#ffffff;fill-opacity:1;stroke:none;stroke-width:0.51390803;stroke-linecap:round;stroke-miterlimit:4;stroke-dasharray:none;stroke-opacity:1"
       d="m 53.120994,52.737268 3.044259,-4.190442 -0.395325,-0.287321 -2.648934,3.645773 z"
       id="path6955" />
    <path
       inkscape:connector-curvature="0"
       style="opacity:1;fill:#ffffff;fill-opacity:1;stroke:none;stroke-width:0.522214;stroke-linecap:round;stroke-miterlimit:4;stroke-dasharray:none;stroke-opacity:1"
       d="m 53.11993,53.14078 4.844054,1.523939 0.156347,-0.464571 -5.000401,-1.573549 z"
       id="path6945" />
  </g>
  <path
     style="opacity:1;fill:#00d900;fill-opacity:1;stroke:#00d900;stroke-width:3.30122066;stroke-linecap:round;stroke-miterlimit:4;stroke-dasharray:none;stroke-opacity:1"
     d="M 70.252434,66.531973 116.14433,93.672034 C 93.585376,94.654989 75.876429,87.006872 69.820966,80.383981 65.625697,75.782078 65.912613,70.485397 70.252434,66.531973 l 1.132984,0.849738"
     id="path7227"
     inkscape:connector-curvature="0"
     sodipodi:nodetypes="ccccc" />
  <path
     inkscape:connector-curvature="0"
     style="opacity:1;fill:#ffffff;fill-opacity:1;stroke:none;stroke-width:3.23221207;stroke-linecap:round;stroke-miterlimit:4;stroke-dasharray:none;stroke-opacity:1"
     d="M 116.2757,91.736652 C 93.701318,93.16787 76.180099,86.613665 70.253687,80.309245 c -4.15558,-4.434435 -3.750563,-9.708003 0.789426,-13.782718 0,0 45.232587,25.210125 45.232587,25.210125"
     id="path7229" />
  <path
     inkscape:connector-curvature="0"
     style="opacity:1;fill:#00d900;fill-opacity:1;stroke:none;stroke-width:0.05666329;stroke-linecap:round;stroke-miterlimit:4;stroke-dasharray:none;stroke-opacity:1"
     d="M 109.64699,87.799107 C 92.117661,89.551946 77.364527,84.679434 71.905753,79.302629 67.919833,75.369117 68.164775,70.5837 72.286916,66.883881 c 0,0 37.360074,20.915226 37.360074,20.915226"
     id="path7231" />
  <path
     inkscape:connector-curvature="0"
     style="opacity:1;fill:#ffffff;fill-opacity:1;stroke:none;stroke-width:2.91246581;stroke-linecap:round;stroke-miterlimit:4;stroke-dasharray:none;stroke-opacity:1"
     d="m 84.281256,73.646478 c 0,0 -15.147607,3.653935 -15.147607,3.653935 0,0 -0.412575,-0.813425 -0.412575,-0.813425 0,0 13.944163,-3.740522 13.944163,-3.740522 0,0 1.616006,0.900022 1.616006,0.900022"
     id="path7233" />
  <path
     inkscape:connector-curvature="0"
     style="opacity:1;fill:#ffffff;fill-opacity:1;stroke:none;stroke-width:2.920892;stroke-linecap:round;stroke-miterlimit:4;stroke-dasharray:none;stroke-opacity:1"
     d="m 86.617747,74.788428 3.953568,13.874503 -2.929336,-0.677942 -3.673261,-15.369399 2.365783,1.312982"
     id="path7235"
     sodipodi:nodetypes="ccccc" />
  <path
     inkscape:connector-curvature="0"
     style="opacity:1;fill:#ffffff;fill-opacity:1;stroke:none;stroke-width:2.9169004;stroke-linecap:round;stroke-miterlimit:4;stroke-dasharray:none;stroke-opacity:1"
     d="m 84.136818,73.36196 -15.747511,-1.634206 0.221838,-0.767899 14.033089,0.728489 1.975903,1.201535"
     id="path7237"
     sodipodi:nodetypes="ccccc" />
  <path
     inkscape:connector-curvature="0"
     style="opacity:1;fill:#ffffff;fill-opacity:1;stroke:none;stroke-width:2.92935753;stroke-linecap:round;stroke-miterlimit:4;stroke-dasharray:none;stroke-opacity:1"
     d="m 85.103773,74.100782 -9.66362,9.051527 -1.339437,-0.845453 9.794818,-9.708255 1.491485,0.935689"
     id="path7239"
     sodipodi:nodetypes="ccccc" />
</svg>
